<svg width="240" height="32" viewBox="0 0 240 32" fill="none" xmlns="http://www.w3.org/2000/svg">
<path d="M178.257 16.0003C178.257 7.16343 185.344 0 194.089 0C201.101 0 207.048 4.60794 209.127 10.9903C211.208 4.60794 217.156 0 224.167 0C232.911 0 240 7.16343 240 16.0003C240 24.8372 232.911 32 224.167 32C217.156 32 211.208 27.3934 209.127 21.0104C207.048 27.3934 201.101 32 194.089 32C185.344 32 178.257 24.8372 178.257 16.0003Z" fill="#00509D"/>
<path d="M204.149 18.6763C204.149 16.9439 203.814 15.6878 203.169 14.9355C202.428 14.0319 201.448 13.7304 199.057 13.6296C197.765 13.5798 196.809 13.5534 196.522 13.5534H192.004C190.474 13.5534 190.353 13.5036 190.092 13.4534C189.374 13.2789 189.014 12.8246 189.014 12.0969C189.014 11.1687 189.445 10.8166 190.641 10.7169C191.382 10.6664 193.534 10.5898 195.015 10.5898C198.292 10.5898 198.746 10.7924 198.746 12.2482H203.48C203.48 9.36117 202.954 8.20516 201.352 7.57713C200.132 7.10005 198.865 7 194.204 7C191.12 7 189.78 7.0509 188.226 7.27593C185.262 7.67823 184.232 9.03364 184.232 12.3728C184.232 15.0099 184.904 16.2916 186.575 16.894C187.39 17.1938 188.776 17.3206 191.095 17.3206H195.495C197.479 17.3206 197.599 17.3448 197.885 17.3708C198.865 17.4712 199.343 17.9472 199.343 18.802C199.343 20.2834 198.746 20.434 193.031 20.434C191.812 20.434 190.45 20.3582 189.995 20.2592C189.279 20.0826 189.111 19.7818 189.063 18.5261H184.305C184.28 18.9031 184.28 19.3286 184.28 19.5065C184.28 21.8912 185.047 23.0964 186.839 23.5735C188.01 23.9 189.636 24 193.247 24C196.666 24 198.028 23.9498 199.941 23.7483C203.001 23.4225 204.149 22.0411 204.149 18.6763Z" fill="#FEFEFE"/>
<path fill-rule="evenodd" clip-rule="evenodd" d="M229.212 20.9678L230.773 24H236.017L227.397 7H220.972L212.116 24H217.549L219.059 20.9678H229.212ZM220.782 17.4246L224.136 10.6447L227.538 17.4246H220.782Z" fill="#FEFEFE"/>
<path d="M138.999 2.10791C139.078 2.03127 139.155 2 139.223 2C139.341 2 139.421 2.10186 139.419 2.2286C139.416 2.30391 139.382 2.38594 139.309 2.45754C136.376 6.04125 134.242 10.2314 134.242 16.0424C134.242 21.8506 136.376 25.9581 139.309 29.5394C139.382 29.6107 139.416 29.6974 139.419 29.769C139.421 29.8961 139.341 30 139.223 30C139.155 30 139.078 29.9681 138.999 29.8881L126.5 18.0097C125.877 17.4856 125.477 16.8737 125.477 16.0003C125.477 15.1253 125.877 14.5127 126.5 13.993L138.999 2.10791Z" fill="#E1001A"/>
<path d="M148.095 1C143.288 1 141.411 7.86398 141.411 16.0447C141.411 24.2278 143.288 31 148.095 31C150.98 31 153.439 29.298 153.446 27.8996C153.446 27.5919 153.33 27.3007 153.076 27.0444C151.709 25.7148 151.175 24.3828 151.17 23.21C151.162 20.9679 153.093 19.2991 154.867 19.2991C157.314 19.2991 158.756 21.2361 158.756 23.7436C158.756 26.1194 157.75 28.1001 156.661 29.6853C156.614 29.7496 156.598 29.8207 156.598 29.8847C156.598 30.0063 156.669 30.1099 156.779 30.1099C156.847 30.1099 156.922 30.0747 157.007 29.989L169.286 18.0254C169.898 17.4985 170.29 16.881 170.29 16.0024C170.29 15.1211 169.898 14.5048 169.286 13.9807L157.007 2.01167C156.922 1.93041 156.847 1.89215 156.779 1.89215C156.666 1.89215 156.598 1.99643 156.598 2.12035C156.598 2.18502 156.614 2.25578 156.661 2.32282C157.75 3.90567 158.756 5.88601 158.756 8.25876C158.756 10.7653 157.314 12.7046 154.867 12.7046C153.093 12.7046 151.162 11.0344 151.17 8.79372C151.175 7.62156 151.709 6.28994 153.076 4.96034C153.33 4.70235 153.446 4.41083 153.446 4.10543C153.439 2.70575 150.98 1 148.095 1Z" fill="#00509D"/>
<path d="M101.759 23.3514C101.51 23.0091 101.378 22.572 101.259 22.0702C101.12 22.2248 100.957 22.3914 100.711 22.6247C99.8025 23.469 98.618 23.9796 97.2796 23.9796C95.8223 23.9796 94.5785 23.4235 93.7887 22.496C92.5733 21.0563 92.582 19.2294 92.581 16.6336V14.1327C92.553 13.1204 92.2324 12.7755 91.2877 12.7493C91.1651 12.7493 91.0304 12.7574 90.8869 12.7738L90.7734 12.7862L90.7307 12.6809C90.6559 12.4956 90.6226 12.3139 90.6226 12.1426C90.6522 10.9332 92.1927 10.2866 93.0997 10.0996C93.4159 10.0516 93.7133 10 94.0029 10C94.7398 9.99967 95.2861 10.234 95.6286 10.659C95.9718 11.081 96.1072 11.6633 96.1092 12.3404L96.0836 16.6102C96.0836 18.1866 96.1971 19.3669 96.5487 20.1247C96.9037 20.8766 97.4409 21.2326 98.4321 21.2406C99.5085 21.2376 100.161 20.7777 100.576 20.0926C100.989 19.4037 101.142 18.4772 101.14 17.5889V14.1327C101.115 13.1204 100.793 12.7738 99.8493 12.7493C99.7247 12.7493 99.5913 12.7574 99.4502 12.7738L99.3354 12.7862L99.2922 12.6809C99.2192 12.4956 99.1814 12.3139 99.1814 12.1426C99.2114 10.9332 100.751 10.2866 101.664 10.0996C101.976 10.0516 102.278 10 102.567 10C103.305 9.99967 103.851 10.234 104.195 10.659C104.542 11.081 104.678 11.6633 104.678 12.3387C104.678 12.8291 104.632 13.6999 104.632 17.3359C104.632 18.8728 104.604 19.6883 104.604 19.9384C104.628 20.9855 104.987 21.4558 105.959 21.4763C106.063 21.4763 106.173 21.4686 106.291 21.4565L106.403 21.4441L106.445 21.55C106.52 21.735 106.556 21.9087 106.556 22.0749C106.517 23.2572 104.972 23.7288 104.077 23.9071C103.767 23.9534 103.482 24 103.23 24H103.211C102.519 24 102.051 23.7587 101.759 23.3514Z" fill="#00509D"/>
<path d="M108.758 23.7641C108.194 23.6044 107.829 23.284 107.833 22.8012C107.833 22.6127 107.887 22.4104 107.985 22.1899L108.014 22.1215L108.085 22.1071C108.297 22.0625 108.664 21.9501 108.973 21.6931C109.311 21.4069 109.44 21.0083 109.44 19.8854V14.2317C109.415 13.2799 109.206 12.9474 108.439 12.9236C108.266 12.9236 108.065 12.9474 107.833 12.9927L107.714 13.0142L107.67 12.9015C107.59 12.6861 107.552 12.4861 107.552 12.2952C107.571 11.1642 108.766 10.5828 109.569 10.3224C109.897 10.2218 110.182 10.1698 110.477 10.1698C111.567 10.1688 112.159 10.98 112.412 12.0248C113.127 10.8099 114.267 10.005 115.39 10C116.445 10.0034 117.504 10.715 117.51 12.0704C117.507 13.0336 116.851 14.0408 115.757 14.0469C114.941 14.0469 114.227 13.4919 114.07 12.6736C113.45 12.8843 112.575 13.6882 112.566 16.4753V19.8854C112.571 21.0036 112.72 21.4069 113.027 21.6904C113.345 21.9387 113.992 22.0625 114.218 22.1071L114.287 22.1215L114.318 22.1916C114.425 22.4318 114.487 22.6482 114.487 22.8519C114.489 23.3092 114.158 23.6222 113.63 23.7729C113.091 23.9373 112.307 24 111.245 24C110.155 24 109.331 23.9336 108.758 23.7641Z" fill="#00509D"/>
<path d="M68.1956 23.7562C68.7902 23.9314 69.6457 24 70.775 24C71.9234 24 72.8274 23.9314 73.4598 23.7448C74.0881 23.5706 74.5015 23.2381 74.5015 22.7125C74.5015 22.5293 74.4523 22.3378 74.362 22.1331L74.3289 22.059L74.2553 22.0462C74.0065 22.0001 73.1574 21.8644 72.8575 21.6161C72.5204 21.3158 72.3364 20.9034 72.3324 19.753V12.1427C72.7541 12.151 73.3173 12.1939 73.8858 12.1939C74.1286 12.1939 74.3988 12.1939 74.654 12.1655C75.3228 12.1022 75.8522 11.527 75.8512 10.7606C75.8512 10.5268 75.8037 10.2789 75.6997 10.0202L75.6623 9.92566H72.2374V7.71869C72.2348 6.92982 72.3294 6.23064 72.607 5.75448C72.8869 5.27935 73.3263 4.99469 74.1286 4.98881C74.6286 4.98431 75.1459 5.13218 75.4154 5.38047C75.2415 5.65578 75.1218 6.02702 75.1202 6.39306C75.1275 7.38936 75.9649 8.17165 76.8739 8.17754C78.0895 8.17512 78.6724 7.10297 78.6724 6.23791C78.6603 4.24288 76.4956 3.00278 73.9092 3.00001C71.8539 2.99758 70.5021 3.8526 69.7273 5.10239C69.2223 5.88503 68.8524 7.0538 68.8524 9.10389V9.95302H67.9803C67.283 9.95302 66.7238 10.451 66.7222 11.1983C66.7222 11.4255 66.772 11.6672 66.8733 11.9204L66.9104 12.0118L68.9019 12.0848V19.753C68.8986 20.9107 68.7608 21.3234 68.4204 21.6226C68.0869 21.8869 67.7207 22.0001 67.4907 22.0462L67.4181 22.0607L67.385 22.1317C67.284 22.3551 67.2312 22.5649 67.2312 22.7582C67.2288 23.2572 67.607 23.5889 68.1956 23.7562Z" fill="#00509D"/>
<path d="M45.0194 23.7641C45.592 23.9336 46.4147 24 47.5033 24C48.5698 24 49.3555 23.9373 49.8937 23.7728C50.4282 23.6195 50.7592 23.3041 50.7544 22.8464C50.7544 22.6427 50.6975 22.4267 50.5914 22.1914L50.5617 22.1213L50.4893 22.1069C50.2536 22.0623 49.6099 21.9385 49.3053 21.6902C48.9817 21.4049 48.8246 21.0033 48.8207 19.885V16.4745C48.8288 13.6903 49.7179 12.8843 50.3415 12.6726C50.4935 13.4909 51.2018 14.0459 52.0123 14.0459C53.118 14.0412 53.7739 13.0326 53.7759 12.0693C53.773 10.7113 52.6993 10.002 51.6586 10C50.5397 10.0037 49.3959 10.7969 48.6772 11.9985C48.4211 10.9674 47.8282 10.1674 46.7277 10.1684C46.4513 10.1684 46.1571 10.2204 45.8396 10.3211C45.033 10.5815 43.8374 11.1576 43.8174 12.284C43.8174 12.478 43.8562 12.685 43.9402 12.9004L43.9849 13.0131L44.0993 12.9917C44.3324 12.9464 44.5348 12.9225 44.71 12.9225C45.4714 12.9464 45.6877 13.2789 45.7138 14.2308V19.885C45.7122 21.0067 45.5764 21.4066 45.2486 21.6965C44.9256 21.9525 44.5739 22.0623 44.3524 22.1069L44.28 22.1213L44.2493 22.1914C44.1507 22.4102 44.0983 22.6125 44.0961 22.8011C44.0961 23.2826 44.4569 23.6044 45.0194 23.7641Z" fill="#00509D"/>
<path d="M34.0668 23.7641C33.5027 23.6044 33.1429 23.2827 33.1429 22.8012C33.1442 22.6127 33.1969 22.4104 33.2958 22.1916L33.3255 22.1215L33.3983 22.1071C33.6165 22.0625 33.9733 21.9527 34.295 21.6968C34.625 21.4069 34.7585 21.007 34.7614 19.8854V14.2317C34.7333 13.2799 34.518 12.9474 33.7538 12.9236C33.5825 12.9236 33.3789 12.9474 33.1474 12.9927L33.0298 13.0142L32.9871 12.9015C32.9017 12.6861 32.8633 12.4791 32.8633 12.2851C32.883 11.1588 34.0781 10.5828 34.8872 10.3224C35.204 10.2218 35.4988 10.1698 35.7719 10.1698C36.8742 10.1688 37.4668 10.9686 37.7228 11.9946C38.4433 10.7982 39.5841 10.005 40.7048 10C41.747 10.0034 42.8186 10.7126 42.8218 12.0704C42.8205 13.0336 42.1633 14.0422 41.0565 14.0469C40.2497 14.0469 39.5388 13.4919 39.3879 12.6736C38.7624 12.8854 37.8773 13.6912 37.8673 16.4753V19.8854C37.8705 21.0036 38.0266 21.4052 38.3496 21.6904C38.6521 21.9387 39.3015 22.0625 39.5343 22.1071L39.6073 22.1215L39.6377 22.1916C39.7418 22.4285 39.8032 22.6429 39.8032 22.8465C39.8065 23.3042 39.4738 23.6195 38.9389 23.7729C38.401 23.9373 37.6158 24 36.5487 24C35.46 24 34.6373 23.9336 34.0668 23.7641Z" fill="#00509D"/>
<path fill-rule="evenodd" clip-rule="evenodd" d="M83.7011 10C85.7034 10 87.4377 10.7061 88.6667 11.934C89.8996 13.1615 90.6226 14.9098 90.6226 16.9751C90.6226 19.0454 89.8682 20.8073 88.6052 22.0468C87.3441 23.2846 85.5804 24 83.5831 24H83.5811C81.6834 24 79.9578 23.2945 78.7054 22.062C77.4554 20.8318 76.6807 19.0703 76.6807 16.9751C76.6867 12.8282 79.9818 10.007 83.7011 10ZM80.5229 16.5934C80.5306 20.264 82.1423 21.8434 83.7235 21.8478C85.5353 21.8458 86.8415 20.2653 86.8518 17.1745C86.8538 15.5595 86.4932 14.268 85.9036 13.3947C85.3137 12.5184 84.5089 12.0531 83.5811 12.0531C81.7031 12.0554 80.534 13.735 80.5229 16.5934Z" fill="#00509D"/>
<path fill-rule="evenodd" clip-rule="evenodd" d="M29.0778 20.5245C29.0921 21.4674 29.6061 21.7246 30.7402 21.9042L30.8714 21.922L30.8624 22.0589C30.7977 23.3411 29.8837 23.8747 28.9011 23.9557C28.8146 23.963 28.7317 23.9673 28.6481 23.9673C27.6833 23.9696 26.7521 23.4789 26.308 22.4821C25.7032 23.0111 24.3333 23.9974 22.5614 24C19.9278 23.9954 17.9311 22.1584 17.9253 19.644C17.9215 18.3189 18.4894 17.2466 19.4407 16.5206C20.3914 15.7972 21.7185 15.413 23.2581 15.413C24.22 15.4153 25.2093 15.5948 25.8958 15.9027V14.4155C25.8735 12.9155 25.3254 12.0651 23.6984 12.0459C23.3934 12.0459 22.7139 12.1279 22.1559 12.3226C22.2092 12.5389 22.2427 12.7591 22.2427 12.9733C22.2427 13.4739 22.088 13.9361 21.7938 14.2756C21.5029 14.6155 21.0687 14.8225 20.5468 14.8225C19.6107 14.8195 18.9006 14.032 18.8984 13.0467C18.9191 11.2256 21.0556 10.0007 23.9106 10C26.1731 10 27.5946 10.5531 28.352 11.5632C29.0433 12.4698 29.0756 13.7936 29.0778 15.6606V20.5245ZM23.6065 21.5808C24.4637 21.5831 25.3417 21.0898 25.8958 20.381V18.4918C25.8958 18.2332 25.7328 17.9532 25.3832 17.7261C25.0316 17.5002 24.4995 17.3425 23.8152 17.3425C22.3942 17.3581 21.4384 18.0478 21.4317 19.4139C21.4397 20.7047 22.281 21.5712 23.6065 21.5808Z" fill="#00509D"/>
<path fill-rule="evenodd" clip-rule="evenodd" d="M64.7447 19.6432L64.8566 19.7293C65.0869 19.9008 65.3393 20.2151 65.3333 20.8175C65.3249 22.2114 63.7434 23.9983 60.2383 24C56.6773 23.9934 53.7823 21.0636 53.7759 17.2303C53.7759 15.1337 54.4429 13.3256 55.614 12.0396C56.7809 10.7544 58.4501 9.99934 60.4268 10C62.2271 9.99934 63.5604 10.6895 64.4347 11.677C65.3083 12.6639 65.7261 13.9412 65.7261 15.1195C65.7261 15.8146 65.585 16.464 65.2904 17.0108L65.2523 17.0863H57.2048C57.3392 19.5041 58.8305 21.194 61.4235 21.2043C63.0204 21.2066 64.2491 20.2982 64.6592 19.7568L64.7447 19.6432ZM62.4206 14.4982C62.3957 13.2282 61.4386 12.0496 59.9613 12.0496C58.1021 12.0496 57.3504 13.5842 57.233 15.1377H61.9824C62.2402 15.1321 62.3093 15.0725 62.3589 14.9873C62.4091 14.8979 62.4229 14.7181 62.4206 14.4982Z" fill="#00509D"/>
<path d="M2.69238 21.3582C1.05525 19.6466 -0.00133407 17.1493 1.26424e-06 14.0389C1.26424e-06 11.0631 1.03122 8.55181 2.64164 6.78562C4.25306 5.02045 6.44468 4 8.75482 4C12.899 4.0075 15.8251 6.95978 15.8395 9.51295C15.8368 10.8797 14.9899 11.9346 13.8411 11.9376C13.2749 11.9376 12.7442 11.7399 12.3552 11.3667C11.9656 10.9935 11.7226 10.4475 11.7236 9.78153C11.7226 8.98296 12.1249 8.49796 12.4247 8.15065C11.8799 7.18848 10.8006 6.39434 9.11169 6.38957C7.67553 6.39264 6.46538 7.14962 5.59407 8.48739C4.72477 9.82413 4.20933 11.743 4.20933 14.0112C4.20933 16.2764 4.7448 18.1875 5.64181 19.5191C6.53482 20.8524 7.77135 21.606 9.20917 21.6097C10.8984 21.606 11.978 20.8214 12.5188 19.8514C12.2177 19.5106 11.8191 19.0218 11.8191 18.2297C11.8191 17.5641 12.0591 17.0133 12.4494 16.6391C12.8403 16.2686 13.3701 16.0695 13.9369 16.0695C15.0853 16.0695 15.9306 17.1213 15.9336 18.4843C15.9216 21.0484 12.9932 23.9915 8.85063 24C6.54584 24 4.33017 23.0688 2.69238 21.3582Z" fill="#00509D"/>
<path d="M2.69238 21.3582C4.33017 23.0688 6.54584 24 8.85063 24C12.9932 23.9915 15.9216 21.0484 15.9336 18.4843C15.9306 17.1213 15.0853 16.0695 13.9369 16.0695C13.3701 16.0695 12.8403 16.2686 12.4494 16.6391C12.0591 17.0133 11.8191 17.5641 11.8191 18.2297C11.8191 19.0218 12.2177 19.5106 12.5188 19.8514C11.978 20.8214 10.8984 21.606 9.20917 21.6097C7.77135 21.606 6.53482 20.8524 5.64181 19.5191C4.7448 18.1875 4.20933 16.2764 4.20933 14.0112C4.20933 11.743 4.72477 9.82413 5.59407 8.48739C6.46538 7.14962 7.67553 6.39264 9.11169 6.38957C10.8006 6.39434 11.8799 7.18848 12.4247 8.15065C12.1249 8.49796 11.7226 8.98296 11.7236 9.78153C11.7226 10.4475 11.9656 10.9935 12.3552 11.3667C12.7442 11.7399 13.2749 11.9376 13.8411 11.9376C14.9899 11.9346 15.8368 10.8797 15.8395 9.51295C15.8251 6.95978 12.899 4.0075 8.75482 4C6.44468 4 4.25306 5.02045 2.64164 6.78562C1.03122 8.55181 1.26424e-06 11.0631 1.26424e-06 14.0389C-0.00133407 17.1493 1.05525 19.6466 2.69238 21.3582Z" fill="#00509D"/>
<path d="M2.69238 21.3582C4.33017 23.0688 6.54584 24 8.85063 24C12.9932 23.9915 15.9216 21.0484 15.9336 18.4843C15.9306 17.1213 15.0853 16.0695 13.9369 16.0695C13.3701 16.0695 12.8403 16.2686 12.4494 16.6391C12.0591 17.0133 11.8191 17.5641 11.8191 18.2297C11.8191 19.0218 12.2177 19.5106 12.5188 19.8514C11.978 20.8214 10.8984 21.606 9.20917 21.6097C7.77135 21.606 6.53482 20.8524 5.64181 19.5191C4.7448 18.1875 4.20933 16.2764 4.20933 14.0112C4.20933 11.743 4.72477 9.82413 5.59407 8.48739C6.46538 7.14962 7.67553 6.39264 9.11169 6.38957C10.8006 6.39434 11.8799 7.18848 12.4247 8.15065C12.1249 8.49796 11.7226 8.98296 11.7236 9.78153C11.7226 10.4475 11.9656 10.9935 12.3552 11.3667C12.7442 11.7399 13.2749 11.9376 13.8411 11.9376C14.9899 11.9346 15.8368 10.8797 15.8395 9.51295C15.8251 6.95978 12.899 4.0075 8.75482 4C6.44468 4 4.25306 5.02045 2.64164 6.78562C1.03122 8.55181 1.26424e-06 11.0631 1.26424e-06 14.0389C-0.00133407 17.1493 1.05525 19.6466 2.69238 21.3582Z" fill="#00509D"/>
</svg>
