<?xml version="1.0" encoding="UTF-8"?>
<svg width="170px" height="36px" viewBox="0 0 170 36" version="1.1" xmlns="http://www.w3.org/2000/svg" xmlns:xlink="http://www.w3.org/1999/xlink">
    <!-- Generator: Sketch 61.2 (89653) - https://sketch.com -->
    <title>daikin-logo</title>
    <desc>Created with Sketch.</desc>
    <defs>
        <polygon id="path-1" points="0.364379978 0.218819987 28.4789983 0.218819987 28.4789983 20.4400188 0.364379978 20.4400188"></polygon>
    </defs>
    <g id="Page-1" stroke="none" stroke-width="1" fill="none" fill-rule="evenodd">
        <g id="detay" transform="translate(-29.000000, -22.000000)">
            <g id="header" transform="translate(29.000000, 22.000000)">
                <g id="daikin-logo">
                    <polygon id="Fill-1" fill="#57C1EE" points="0 -5.99999964e-05 0 35.7365379 38.7341977 -5.99999964e-05"></polygon>
                    <polygon id="Fill-2" fill="#010202" points="5.32907052e-14 -5.99999965e-05 5.32907052e-14 17.8763389 19.3619988 -5.99999965e-05"></polygon>
                    <polygon id="Fill-3" fill="#2694D1" points="96.7053542 27.9733783 101.758554 7.75757954 92.8293545 7.75757954 87.7725548 27.9733783"></polygon>
                    <polygon id="Fill-4" fill="#2694D1" points="72.4220357 19.4737788 70.3754358 19.4737788 73.6778356 13.6423792 74.7500355 19.4737788 72.4220357 19.4737788 72.4220357 24.6007785 75.6806355 24.6007785 76.2938355 27.9703783 85.0118349 27.9703783 81.3050352 7.75517954 71.1518358 7.75517954 59.6618364 27.9703783 65.5706361 27.9703783 67.478036 24.6007785 72.4220357 24.6007785"></polygon>
                    <polygon id="Fill-5" fill="#2694D1" points="137.514712 27.9733783 142.560112 7.75757954 133.626112 7.75757954 128.583712 27.9733783"></polygon>
                    <polygon id="Fill-6" fill="#2694D1" points="111.164513 20.9954387 109.419713 27.9746383 100.885914 27.9746383 105.927714 7.75823954 114.490313 7.75823954 112.816913 14.3720391 120.478913 7.75823954 129.633712 7.75823954 118.407713 17.385839 126.061312 27.9746383 115.726913 27.9746383"></polygon>
                    <g id="Group-12" transform="translate(33.599998, 7.536600)">
                        <path d="M11.1667193,15.973679 L9.71171942,15.973679 L12.4987193,5.0716797 L15.3709191,5.0716797 C16.399919,5.0782797 19.3765188,5.34467968 19.0513189,9.41087944 C19.0513189,9.41087944 18.4717189,15.973679 12.8767192,15.973679 L11.1667193,15.973679 L11.1667193,20.4310788 L15.5569191,20.4370788 C21.7411187,20.4370788 27.8239183,15.8362791 27.8239183,8.78567948 C27.8239183,0.491879971 18.5983189,0.230879986 18.5983189,0.230879986 L16.288919,0.224279987 L5.1091197,0.224279987 L0.0661199961,20.4310788 L11.1667193,20.4310788 L11.1667193,15.973679 Z" id="Fill-7" fill="#2694D1"></path>
                        <g id="Group-11" transform="translate(107.999994, 0.000000)">
                            <mask id="mask-2" fill="white">
                                <use xlink:href="#path-1"></use>
                            </mask>
                            <g id="Clip-10"></g>
                            <polygon id="Fill-9" fill="#2694D1" mask="url(#mask-2)" points="0.364379978 20.4400188 5.41037968 0.218819987 15.3487791 0.218819987 19.3153788 12.1240193 22.2967787 0.218819987 28.4791783 0.218819987 23.4259786 20.4400188 13.5313792 20.4400188 9.55097943 8.4292195 6.54377961 20.4400188"></polygon>
                        </g>
                    </g>
                </g>
            </g>
        </g>
    </g>
</svg>